<?xml version="1.0" encoding="UTF-8"?>
<svg width="16px" height="16px" viewBox="0 0 16 16" version="1.1" xmlns="http://www.w3.org/2000/svg" xmlns:xlink="http://www.w3.org/1999/xlink">
    <defs></defs>
    <g id="-----Symbols" stroke="none" stroke-width="1" fill="none" fill-rule="evenodd" stroke-linejoin="round">
        <g id="Elements-/-Queue-serviced-first-item" transform="translate(-136.000000, -4.000000)" stroke="#817F7C">
            <g id="Diane" transform="translate(-46.000000, 0.000000)">
                <g id="principal" transform="translate(77.000000, 0.000000)">
                    <g id="formulas-icon" transform="translate(105.000000, 4.000000)">
                        <path d="M5.56533913,12.2608696 C5.56533913,13.606087 4.47516522,14.6956522 3.13055652,14.6956522 C1.78594783,14.6956522 0.695773913,13.606087 0.695773913,12.2608696 C0.695773913,10.9162609 1.78594783,9.82608696 3.13055652,9.82608696 C4.47516522,9.82608696 5.56533913,10.9162609 5.56533913,12.2608696 L5.56533913,12.2608696 Z" id="Stroke-6247"></path>
                        <path d="M14.6957739,12.2608696 C14.6957739,13.606087 13.6056,14.6956522 12.2609913,14.6956522 C10.9163826,14.6956522 9.8262087,13.606087 9.8262087,12.2608696 C9.8262087,10.9162609 10.9163826,9.82608696 12.2609913,9.82608696 C13.6056,9.82608696 14.6957739,10.9162609 14.6957739,12.2608696 L14.6957739,12.2608696 Z" id="Stroke-6248"></path>
                        <path d="M10.1305565,3.13073913 C10.1305565,4.47534783 9.04038261,5.56552174 7.69577391,5.56552174 C6.35055652,5.56552174 5.2609913,4.47534783 5.2609913,3.13073913 C5.2609913,1.78552174 6.35055652,0.695956522 7.69577391,0.695956522 C9.04038261,0.695956522 10.1305565,1.78552174 10.1305565,3.13073913 L10.1305565,3.13073913 Z" id="Stroke-6249"></path>
                        <path d="M5.56533913,12.2608696 L9.8262087,12.2608696" id="Stroke-6250"></path>
                        <path d="M8.90354783,5.23232174 L11.2957217,10.0251913" id="Stroke-6251"></path>
                        <path d="M6.47838261,5.26086957 L4.09655652,10.0251304" id="Stroke-6252"></path>
                    </g>
                </g>
            </g>
        </g>
    </g>
</svg>