<?xml version="1.0" encoding="UTF-8"?>
<svg width="38px" height="38px" viewBox="0 0 38 38" version="1.1" xmlns="http://www.w3.org/2000/svg" xmlns:xlink="http://www.w3.org/1999/xlink">
    <defs></defs>
    <g id="-----Symbols" stroke="none" stroke-width="1" fill="none" fill-rule="evenodd">
        <g id="Elemtns-/-queue-serviced-left-swipe-2" transform="translate(-26.000000, -23.000000)" fill="#FFFFFF">
            <g id="Group-4" transform="translate(24.000000, 23.000000)">
                <g id="icon_finish_serv" transform="translate(2.000000, 0.000000)">
                    <path d="M19,0 C8.5236458,0 0,8.5236458 0,18.9993596 C0,29.4763542 8.5236458,38 19,38 C29.4763542,38 38,29.4763542 38,18.9993596 C38,8.5236458 29.4763542,0 19,0" id="Fill-1" opacity="0.149999991"></path>
                    <g id="Group" transform="translate(7.635417, 9.203125)">
                        <path d="M3.43747355,11.6704285 C3.42593791,11.6704285 3.41385295,11.6698792 3.40176799,11.6693298 C3.23093058,11.6583435 3.07547404,11.5677063 2.9804423,11.4259827 L0.228367106,7.29732056 C0.0602762858,7.04463501 0.12839152,6.70405884 0.380527751,6.5354187 C0.633213298,6.3678772 0.973789469,6.43544312 1.14242961,6.68812866 L3.49625041,10.2191345 L6.23459269,7.09022827 C6.43454386,6.86171265 6.78116252,6.83864136 7.00967814,7.03804321 C7.23819377,7.2385437 7.26126506,7.58516235 7.06131388,7.81367798 L3.85055949,11.4825623 C3.74618937,11.6023132 3.59512736,11.6704285 3.43747355,11.6704285" id="Fill-4"></path>
                        <path d="M12.4725199,19.0025391 C12.1780863,19.0025391 11.9347392,18.7696289 11.9237528,18.472998 C11.9127665,18.1697754 12.1495219,17.9154419 12.4527445,17.9044556 C14.632432,17.8242554 16.6500712,16.9008545 18.1348735,15.3028931 C19.6196757,13.7049316 20.3925639,11.6246704 20.3112651,9.44553223 C20.1464701,4.94608154 16.3479472,1.42111816 11.8517924,1.58481445 C9.58256632,1.66885986 7.41276652,2.73728027 5.89939982,4.51541748 C4.36680705,6.31662598 3.68730265,8.63858643 3.98722941,11.0533813 C4.02513224,11.3544067 3.81089884,11.6285156 3.50987345,11.6664185 C3.21434123,11.7065186 2.93418986,11.4900879 2.89738566,11.1885132 C2.55900675,8.46445312 3.32804972,5.8420166 5.06279093,3.80350342 C6.77501017,1.79135742 9.23484904,0.582861328 11.811143,0.487280273 C16.9164897,0.280737305 21.2220317,4.30008545 21.4093486,9.40488281 C21.5016337,11.8768066 20.6243754,14.2372192 18.939622,16.0505127 C17.2554179,17.8638062 14.9658671,18.9119019 12.4928446,19.0019897 C12.4857035,19.0025391 12.4791117,19.0025391 12.4725199,19.0025391" id="Fill-6"></path>
                    </g>
                </g>
            </g>
        </g>
    </g>
</svg>